<?xml version="1.0" encoding="UTF-8"?>
<!DOCTYPE svg PUBLIC "-//W3C//DTD SVG 1.1//EN" "http://www.w3.org/Graphics/SVG/1.1/DTD/svg11.dtd">
<svg xmlns="http://www.w3.org/2000/svg" version="1.1" width="276px" height="276px" style="shape-rendering:geometricPrecision; text-rendering:geometricPrecision; image-rendering:optimizeQuality; fill-rule:evenodd; clip-rule:evenodd" xmlns:xlink="http://www.w3.org/1999/xlink">
<g><path style="opacity:0.997" fill="#000000" d="M 62.5,-0.5 C 112.5,-0.5 162.5,-0.5 212.5,-0.5C 246.5,7.5 267.5,28.5 275.5,62.5C 275.5,112.5 275.5,162.5 275.5,212.5C 267.5,246.5 246.5,267.5 212.5,275.5C 162.5,275.5 112.5,275.5 62.5,275.5C 28.5,267.5 7.5,246.5 -0.5,212.5C -0.5,162.5 -0.5,112.5 -0.5,62.5C 7.5,28.5 28.5,7.5 62.5,-0.5 Z"/></g>
<g><path style="opacity:1" fill="#fcfcfc" d="M 72.5,56.5 C 109.269,62.6995 144.936,72.8662 179.5,87C 195.21,93.0713 209.043,101.905 221,113.5C 232.265,127.47 232.265,141.47 221,155.5C 207.99,168.261 193.157,178.427 176.5,186C 146.558,199.427 115.891,211.094 84.5,221C 70.5076,222.006 64.3409,215.506 66,201.5C 67.8333,197 71,193.833 75.5,192C 112.357,181.382 147.69,167.049 181.5,149C 188.221,145.449 193.887,140.616 198.5,134.5C 194.425,129.96 189.758,126.127 184.5,123C 149.013,106.282 112.013,93.9487 73.5,86C 62.7598,81.1176 59.9265,73.2842 65,62.5C 67.4784,60.3606 69.9784,58.3606 72.5,56.5 Z"/></g>
</svg>
