<?xml version="1.0" encoding="UTF-8"?>
<!DOCTYPE svg PUBLIC "-//W3C//DTD SVG 1.1//EN" "http://www.w3.org/Graphics/SVG/1.1/DTD/svg11.dtd">
<svg xmlns="http://www.w3.org/2000/svg" version="1.1" width="192px" height="192px" style="shape-rendering:geometricPrecision; text-rendering:geometricPrecision; image-rendering:optimizeQuality; fill-rule:evenodd; clip-rule:evenodd" xmlns:xlink="http://www.w3.org/1999/xlink">
<g><path style="opacity:0.175" fill="#050505" d="M 86.5,13.5 C 118.082,11.3537 138.249,25.3537 147,55.5C 150.424,79.2609 142.257,97.7609 122.5,111C 101.083,122.091 80.7501,120.424 61.5,106C 43.7067,89.0512 38.8734,68.8846 47,45.5C 54.9779,28.3488 68.1445,17.6822 86.5,13.5 Z"/></g>
<g><path style="opacity:1" fill="#fdfdfc" d="M 88.5,17.5 C 116.92,16.4388 135.086,29.4388 143,56.5C 145.305,90.6947 129.471,110.028 95.5,114.5C 61.4869,109.992 45.6536,90.6584 48,56.5C 53.4854,35.0348 66.9854,22.0348 88.5,17.5 Z"/></g>
<g><path style="opacity:1" fill="#ff9a09" d="M 89.5,44.5 C 109.507,43.3391 118.34,52.6725 116,72.5C 111.136,83.6921 102.636,88.5254 90.5,87C 76.4219,81.3408 71.5886,71.1742 76,56.5C 78.85,50.5144 83.35,46.5144 89.5,44.5 Z"/></g>
<g><path style="opacity:0.978" fill="#1ad1a5" d="M 68.5,124.5 C 88.2129,124.062 107.88,124.562 127.5,126C 144.235,134.878 148.068,147.711 139,164.5C 135.395,168.721 130.895,171.554 125.5,173C 104.436,173.966 83.4357,173.632 62.5,172C 47.0591,163.672 43.2258,151.505 51,135.5C 55.5938,129.632 61.4271,125.965 68.5,124.5 Z"/></g>
</svg>
