<?xml version="1.0" encoding="UTF-8"?>
<!DOCTYPE svg PUBLIC "-//W3C//DTD SVG 1.1//EN" "http://www.w3.org/Graphics/SVG/1.1/DTD/svg11.dtd">
<svg xmlns="http://www.w3.org/2000/svg" version="1.1" width="400px" height="320px" style="shape-rendering:geometricPrecision; text-rendering:geometricPrecision; image-rendering:optimizeQuality; fill-rule:evenodd; clip-rule:evenodd" xmlns:xlink="http://www.w3.org/1999/xlink">
<g><path style="opacity:1" fill="#080505" d="M -0.5,-0.5 C 132.833,-0.5 266.167,-0.5 399.5,-0.5C 399.5,106.167 399.5,212.833 399.5,319.5C 266.167,319.5 132.833,319.5 -0.5,319.5C -0.5,212.833 -0.5,106.167 -0.5,-0.5 Z"/></g>
<g><path style="opacity:1" fill="#050303" d="M 334.5,209.5 C 334.5,208.5 334.5,207.5 334.5,206.5C 336.5,206.5 338.5,206.5 340.5,206.5C 340.263,207.791 340.596,208.791 341.5,209.5C 342.5,209.5 343.5,209.5 344.5,209.5C 343.873,206.911 343.873,204.411 344.5,202C 344.241,200.739 343.574,199.739 342.5,199C 338.514,198.501 334.514,198.334 330.5,198.5C 330.5,201.5 330.5,204.5 330.5,207.5C 330.167,207.5 329.833,207.5 329.5,207.5C 329.5,206.5 329.5,205.5 329.5,204.5C 327.406,205.242 325.239,205.909 323,206.5C 319.056,206.905 317.89,205.405 319.5,202C 320.5,201.833 321.5,201.667 322.5,201.5C 324.841,202.182 327.174,202.849 329.5,203.5C 328.922,199.688 326.589,198.021 322.5,198.5C 318.988,198.081 316.654,199.414 315.5,202.5C 314.833,201.833 314.167,201.167 313.5,200.5C 310.128,198.29 306.462,197.957 302.5,199.5C 301.021,202.257 301.687,204.257 304.5,205.5C 301.433,205.121 300.433,206.121 301.5,208.5C 301.565,208.938 301.399,209.272 301,209.5C 299.743,207.254 297.91,205.921 295.5,205.5C 295.768,207.099 295.434,208.432 294.5,209.5C 294.5,205.833 294.5,202.167 294.5,198.5C 293.167,198.5 291.833,198.5 290.5,198.5C 290.5,199.833 290.5,201.167 290.5,202.5C 288.5,202.5 286.5,202.5 284.5,202.5C 284.5,201.167 284.5,199.833 284.5,198.5C 283.167,198.5 281.833,198.5 280.5,198.5C 280.5,199.5 280.5,200.5 280.5,201.5C 280.167,201.5 279.833,201.5 279.5,201.5C 279.5,200.833 279.5,200.167 279.5,199.5C 275.03,198.514 270.363,198.181 265.5,198.5C 265.5,199.5 265.5,200.5 265.5,201.5C 261.981,198.721 257.981,197.888 253.5,199C 251.859,200.129 250.859,201.629 250.5,203.5C 250.167,203.5 249.833,203.5 249.5,203.5C 249.439,201.408 248.439,199.908 246.5,199C 242.525,198.013 238.859,198.513 235.5,200.5C 234.833,199.833 234.167,199.167 233.5,198.5C 231.801,198.34 230.134,198.506 228.5,199C 227.33,201.185 226.164,203.351 225,205.5C 224.059,203.273 222.892,201.273 221.5,199.5C 220.081,198.549 218.415,198.216 216.5,198.5C 216.5,200.833 216.5,203.167 216.5,205.5C 216.167,205.5 215.833,205.5 215.5,205.5C 215.047,204.542 214.381,203.708 213.5,203C 215.957,201.846 215.957,200.512 213.5,199C 209.525,198.013 205.859,198.513 202.5,200.5C 182.208,199.575 161.875,200.075 141.5,202C 112.421,203.27 83.7543,207.27 55.5,214C 40.1703,214.5 24.837,214.667 9.5,214.5C 8.90845,205.566 9.57512,196.899 11.5,188.5C 29.2647,187.846 46.9313,187.179 64.5,186.5C 65.1667,186.5 65.5,186.167 65.5,185.5C 69.5,181.833 73.5,178.167 77.5,174.5C 79.1667,173.5 80.5,172.167 81.5,170.5C 85.4632,166.036 89.6298,161.702 94,157.5C 94.6667,149.5 94.6667,141.5 94,133.5C 88.9646,138.703 83.798,143.703 78.5,148.5C 70.5,155.833 62.8333,163.5 55.5,171.5C 46.818,171.936 37.818,172.27 28.5,172.5C 28.5569,171.391 28.8902,170.391 29.5,169.5C 33.4643,166.037 37.2977,162.37 41,158.5C 41.1685,150.812 41.6685,143.145 42.5,135.5C 43.086,135.291 43.586,134.957 44,134.5C 44.7985,141.883 44.6318,149.217 43.5,156.5C 44.2787,161.113 44.7787,165.78 45,170.5C 49.3702,166.298 53.5368,161.964 57.5,157.5C 58.66,145.007 58.8267,132.34 58,119.5C 57.2828,120.044 56.7828,120.711 56.5,121.5C 52.369,125.13 48.369,128.963 44.5,133C 43.552,133.483 42.552,133.649 41.5,133.5C 41.334,128.156 41.5006,122.823 42,117.5C 42.3826,116.944 42.8826,116.611 43.5,116.5C 44.6266,115.878 45.6266,115.045 46.5,114C 51.8229,113.501 57.1563,113.334 62.5,113.5C 62.5109,116.001 63.1776,116.168 64.5,114C 67.2617,112.923 68.9283,113.756 69.5,116.5C 69.554,121.587 69.3873,126.587 69,131.5C 70.045,130.627 70.8783,129.627 71.5,128.5C 75.1296,124.369 78.963,120.369 83,116.5C 84.1515,111.239 83.3182,106.406 80.5,102C 79.1667,101.333 77.8333,100.667 76.5,100C 70.8333,99.3333 65.1667,99.3333 59.5,100C 55.631,104.037 51.631,107.87 47.5,111.5C 46.1851,112.476 44.8518,113.476 43.5,114.5C 42.8333,108.833 42.1667,103.167 41.5,97.5C 40.8319,99.9688 40.1653,102.302 39.5,104.5C 38.1879,102.521 36.5212,100.855 34.5,99.5C 29.6815,103.818 25.0148,108.318 20.5,113C 24.1827,112.663 26.516,114.163 27.5,117.5C 27.6666,135.503 27.4999,153.503 27,171.5C 25.955,172.373 25.1217,173.373 24.5,174.5C 20.1667,178.167 16.1667,182.167 12.5,186.5C 11.5084,186.328 10.8417,186.662 10.5,187.5C 9.50174,155.004 9.16841,122.338 9.5,89.5C 110.31,88.8387 210.977,89.5054 311.5,91.5C 337.341,89.5215 363.341,88.8548 389.5,89.5C 389.5,131.167 389.5,172.833 389.5,214.5C 373.83,214.667 358.163,214.5 342.5,214C 339.956,212.908 337.289,212.241 334.5,212C 337.113,210.929 337.113,210.095 334.5,209.5 Z"/></g>
<g><path style="opacity:1" fill="#43292b" d="M 47.5,111.5 C 52.5,112.167 57.5,112.833 62.5,113.5C 57.1563,113.334 51.8229,113.501 46.5,114C 45.6266,115.045 44.6266,115.878 43.5,116.5C 42.1667,112.5 40.8333,108.5 39.5,104.5C 40.1653,102.302 40.8319,99.9688 41.5,97.5C 42.1667,103.167 42.8333,108.833 43.5,114.5C 44.8518,113.476 46.1851,112.476 47.5,111.5 Z"/></g>
<g><path style="opacity:1" fill="#372022" d="M 382.5,100.5 C 369.677,99.5045 356.677,99.1712 343.5,99.5C 356.66,98.669 369.994,98.169 383.5,98C 385.015,95.8945 385.515,96.0612 385,98.5C 384.292,99.3805 383.458,100.047 382.5,100.5 Z"/></g>
<g><path style="opacity:1" fill="#4b2e2f" d="M 173.5,101.5 C 160.344,100.504 147.01,100.171 133.5,100.5C 146.994,99.6689 160.661,99.1689 174.5,99C 176.015,96.8945 176.515,97.0612 176,99.5C 175.292,100.381 174.458,101.047 173.5,101.5 Z"/></g>
<g><path style="opacity:1" fill="#4a2e2f" d="M 322.5,101.5 C 303.674,100.503 284.674,100.17 265.5,100.5C 284.662,99.6682 303.996,99.1682 323.5,99C 325.015,96.8945 325.515,97.0612 325,99.5C 324.292,100.381 323.458,101.047 322.5,101.5 Z"/></g>
<g><path style="opacity:1" fill="#fb98a3" d="M 39.5,104.5 C 40.8333,108.5 42.1667,112.5 43.5,116.5C 42.8826,116.611 42.3826,116.944 42,117.5C 41.5006,122.823 41.334,128.156 41.5,133.5C 42.552,133.649 43.552,133.483 44.5,133C 48.369,128.963 52.369,125.13 56.5,121.5C 57.4951,133.322 57.8284,145.322 57.5,157.5C 53.5368,161.964 49.3702,166.298 45,170.5C 44.7787,165.78 44.2787,161.113 43.5,156.5C 44.6318,149.217 44.7985,141.883 44,134.5C 43.586,134.957 43.086,135.291 42.5,135.5C 41.6685,143.145 41.1685,150.812 41,158.5C 37.2977,162.37 33.4643,166.037 29.5,169.5C 28.8333,152.167 28.1667,134.833 27.5,117.5C 26.516,114.163 24.1827,112.663 20.5,113C 25.0148,108.318 29.6815,103.818 34.5,99.5C 36.5212,100.855 38.1879,102.521 39.5,104.5 Z"/></g>
<g><path style="opacity:1" fill="#fa99a3" d="M 71.5,128.5 C 70.8333,124.5 70.1667,120.5 69.5,116.5C 68.9283,113.756 67.2617,112.923 64.5,114C 63.1776,116.168 62.5109,116.001 62.5,113.5C 57.5,112.833 52.5,112.167 47.5,111.5C 51.631,107.87 55.631,104.037 59.5,100C 65.1667,99.3333 70.8333,99.3333 76.5,100C 77.8333,100.667 79.1667,101.333 80.5,102C 83.3182,106.406 84.1515,111.239 83,116.5C 78.963,120.369 75.1296,124.369 71.5,128.5 Z"/></g>
<g><path style="opacity:1" fill="#f797a1" d="M 241.5,104.5 C 241.169,126.34 241.503,148.006 242.5,169.5C 243.973,172.41 246.14,173.077 249,171.5C 244.901,176.614 240.235,181.614 235,186.5C 231.965,184.121 229.631,181.121 228,177.5C 227.831,164.993 227.331,152.66 226.5,140.5C 226.5,139.833 226.5,139.167 226.5,138.5C 227.656,131.011 227.822,123.345 227,115.5C 225.137,113.051 222.637,112.051 219.5,112.5C 217.833,112.667 216.167,112.833 214.5,113C 213.944,113.383 213.611,113.883 213.5,114.5C 212.833,114.167 212.167,113.833 211.5,113.5C 206.833,112.833 202.167,112.167 197.5,111.5C 200.963,107.536 204.63,103.702 208.5,100C 216.833,99.3333 225.167,99.3333 233.5,100C 236.309,101.323 238.975,102.823 241.5,104.5 Z"/></g>
<g><path style="opacity:1" fill="#fa99a3" d="M 343.5,99.5 C 356.677,99.1712 369.677,99.5045 382.5,100.5C 377.535,104.963 372.702,109.63 368,114.5C 367.5,114 367,113.5 366.5,113C 361.833,112.333 357.167,112.333 352.5,113C 351.648,114.728 350.648,114.895 349.5,113.5C 343.5,112.833 337.5,112.167 331.5,111.5C 335.221,107.112 339.221,103.112 343.5,99.5 Z"/></g>
<g><path style="opacity:1" fill="#fb98a3" d="M 113.5,105.5 C 114.715,109.326 116.048,112.993 117.5,116.5C 117.167,117.167 116.833,117.833 116.5,118.5C 116.062,131.579 115.729,144.912 115.5,158.5C 111.833,162.833 107.833,166.833 103.5,170.5C 102.833,152.833 102.167,135.167 101.5,117.5C 100.833,116.167 99.8333,115.167 98.5,114.5C 97.5,113.833 96.5,113.167 95.5,112.5C 99.8131,108.522 104.146,104.522 108.5,100.5C 110.521,101.855 112.188,103.521 113.5,105.5 Z"/></g>
<g><path style="opacity:1" fill="#fb99a3" d="M 133.5,100.5 C 147.01,100.171 160.344,100.504 173.5,101.5C 168.5,105.833 163.833,110.5 159.5,115.5C 159.167,115.5 158.833,115.5 158.5,115.5C 155.572,114.18 152.239,113.514 148.5,113.5C 145.167,113.667 141.833,113.833 138.5,114C 137.956,114.717 137.289,115.217 136.5,115.5C 131.749,113.859 126.749,112.859 121.5,112.5C 125.414,108.517 129.414,104.517 133.5,100.5 Z"/></g>
<g><path style="opacity:1" fill="#f998a2" d="M 190.5,105.5 C 190.151,109.742 190.817,113.742 192.5,117.5C 191.622,123.798 191.289,130.131 191.5,136.5C 190.508,143.648 190.175,150.981 190.5,158.5C 186.167,162.167 182.167,166.167 178.5,170.5C 177.833,152.5 177.167,134.5 176.5,116.5C 174.925,114.059 172.592,112.893 169.5,113C 173.833,108.667 178.167,104.333 182.5,100C 183.167,99.3333 183.833,99.3333 184.5,100C 186.416,102.09 188.416,103.923 190.5,105.5 Z"/></g>
<g><path style="opacity:1" fill="#fe98a2" d="M 316.5,106.5 C 315.167,108.5 313.5,110.167 311.5,111.5C 293.53,112.233 275.53,112.066 257.5,111C 260.167,108.333 262.833,105.667 265.5,103C 283.167,102.333 300.833,102.333 318.5,103C 317.177,103.816 316.511,104.983 316.5,106.5 Z"/></g>
<g><path style="opacity:1" fill="#311b1d" d="M 242.5,169.5 C 241.503,148.006 241.169,126.34 241.5,104.5C 242.445,121.353 242.778,143.019 242.5,169.5 Z"/></g>
<g><path style="opacity:1" fill="#3a2224" d="M 121.5,112.5 C 126.749,112.859 131.749,113.859 136.5,115.5C 135.92,117.749 134.587,119.415 132.5,120.5C 132.167,120.5 131.833,120.5 131.5,120.5C 132.81,118.852 134.143,117.186 135.5,115.5C 129.288,113.982 123.288,114.315 117.5,116.5C 116.048,112.993 114.715,109.326 113.5,105.5C 114.165,103.302 114.832,100.969 115.5,98.5C 116.167,104.167 116.833,109.833 117.5,115.5C 118.852,114.476 120.185,113.476 121.5,112.5 Z"/></g>
<g><path style="opacity:1" fill="#ed97a2" d="M 265.5,100.5 C 284.674,100.17 303.674,100.503 322.5,101.5C 320.5,103.167 318.5,104.833 316.5,106.5C 316.511,104.983 317.177,103.816 318.5,103C 300.833,102.333 283.167,102.333 265.5,103C 262.833,105.667 260.167,108.333 257.5,111C 275.53,112.066 293.53,112.233 311.5,111.5C 311.389,112.117 311.056,112.617 310.5,113C 306.344,112.948 302.51,113.781 299,115.5C 298.5,129.163 298.333,142.829 298.5,156.5C 297.833,143.5 297.167,130.5 296.5,117.5C 297.234,116.292 297.567,114.959 297.5,113.5C 292.456,113.173 287.456,113.506 282.5,114.5C 281.552,119.435 281.219,124.435 281.5,129.5C 280.677,126.023 280.177,122.356 280,118.5C 276.333,122.167 272.667,125.833 269,129.5C 268.173,143.34 268.339,157.006 269.5,170.5C 268.89,171.391 268.557,172.391 268.5,173.5C 264.795,175.183 260.795,176.016 256.5,176C 253.5,179 250.5,182 247.5,185C 265.5,185.667 283.5,185.667 301.5,185C 304.5,182 307.5,179 310.5,176C 301.773,176.141 293.44,175.308 285.5,173.5C 295.172,173.334 304.839,173.5 314.5,174C 310.298,178.37 305.964,182.537 301.5,186.5C 282.659,186.83 263.993,186.497 245.5,185.5C 248.963,181.536 252.63,177.702 256.5,174C 260.332,174.038 263.832,173.205 267,171.5C 267.823,157.592 267.656,143.758 266.5,130C 271.766,125.241 276.433,120.075 280.5,114.5C 271.5,113.833 262.5,113.167 253.5,112.5C 257.833,108.833 261.833,104.833 265.5,100.5 Z"/></g>
<g><path style="opacity:1" fill="#6b4044" d="M 331.5,111.5 C 337.5,112.167 343.5,112.833 349.5,113.5C 343.132,113.83 336.798,113.496 330.5,112.5C 330.624,111.893 330.957,111.56 331.5,111.5 Z"/></g>
<g><path style="opacity:1" fill="#844f54" d="M 95.5,112.5 C 96.5,113.167 97.5,113.833 98.5,114.5C 96.4247,114.698 94.4247,114.865 92.5,115C 93.3734,113.955 94.3734,113.122 95.5,112.5 Z"/></g>
<g><path style="opacity:1" fill="#060404" d="M 211.5,113.5 C 210.246,116.093 208.58,118.427 206.5,120.5C 202.836,124.997 198.669,128.997 194,132.5C 193.829,140.344 193.329,148.011 192.5,155.5C 191.51,149.355 191.177,143.022 191.5,136.5C 191.289,130.131 191.622,123.798 192.5,117.5C 193.64,116.199 194.973,115.032 196.5,114C 201.489,113.501 206.489,113.334 211.5,113.5 Z"/></g>
<g><path style="opacity:1" fill="#030202" d="M 226.5,138.5 C 220.778,144.227 214.778,149.56 208.5,154.5C 208.333,142.829 208.5,131.162 209,119.5C 210.707,117.963 212.207,116.296 213.5,114.5C 213.611,113.883 213.944,113.383 214.5,113C 216.167,112.833 217.833,112.667 219.5,112.5C 222.637,112.051 225.137,113.051 227,115.5C 227.822,123.345 227.656,131.011 226.5,138.5 Z"/></g>
<g><path style="opacity:1" fill="#4e2c2f" d="M 253.5,112.5 C 262.5,113.167 271.5,113.833 280.5,114.5C 270.416,114.385 260.416,114.552 250.5,115C 251.373,113.955 252.373,113.122 253.5,112.5 Z"/></g>
<g><path style="opacity:1" fill="#020101" d="M 131.5,120.5 C 126.833,124.5 122.5,128.833 118.5,133.5C 116.558,128.944 115.892,123.944 116.5,118.5C 116.833,117.833 117.167,117.167 117.5,116.5C 123.288,114.315 129.288,113.982 135.5,115.5C 134.143,117.186 132.81,118.852 131.5,120.5 Z"/></g>
<g><path style="opacity:1" fill="#583539" d="M 190.5,105.5 C 191.477,108.287 191.81,111.287 191.5,114.5C 193.947,114.385 195.947,113.385 197.5,111.5C 202.167,112.167 206.833,112.833 211.5,113.5C 206.489,113.334 201.489,113.501 196.5,114C 194.973,115.032 193.64,116.199 192.5,117.5C 190.817,113.742 190.151,109.742 190.5,105.5 Z"/></g>
<g><path style="opacity:1" fill="#160d0d" d="M 296.5,117.5 C 292.536,120.963 288.702,124.63 285,128.5C 284.267,142.916 283.934,157.249 284,171.5C 279.142,173.414 273.975,174.081 268.5,173.5C 268.557,172.391 268.89,171.391 269.5,170.5C 273.13,166.369 276.963,162.369 281,158.5C 281.193,149.119 281.693,139.786 282.5,130.5C 282.376,129.893 282.043,129.56 281.5,129.5C 281.219,124.435 281.552,119.435 282.5,114.5C 287.456,113.506 292.456,113.173 297.5,113.5C 297.567,114.959 297.234,116.292 296.5,117.5 Z"/></g>
<g><path style="opacity:1" fill="#603a3e" d="M 69.5,116.5 C 70.1667,120.5 70.8333,124.5 71.5,128.5C 70.8783,129.627 70.045,130.627 69,131.5C 69.3873,126.587 69.554,121.587 69.5,116.5 Z"/></g>
<g><path style="opacity:1" fill="#673e42" d="M 176.5,116.5 C 177.167,134.5 177.833,152.5 178.5,170.5C 178.5,171.167 178.5,171.833 178.5,172.5C 177.833,172.167 177.167,171.833 176.5,171.5C 176.5,153.167 176.5,134.833 176.5,116.5 Z"/></g>
<g><path style="opacity:1" fill="#fd9aa4" d="M 281.5,129.5 C 282.043,129.56 282.376,129.893 282.5,130.5C 281.693,139.786 281.193,149.119 281,158.5C 276.963,162.369 273.13,166.369 269.5,170.5C 268.339,157.006 268.173,143.34 269,129.5C 272.667,125.833 276.333,122.167 280,118.5C 280.177,122.356 280.677,126.023 281.5,129.5 Z"/></g>
<g><path style="opacity:1" fill="#c0737b" d="M 27.5,117.5 C 28.1667,134.833 28.8333,152.167 29.5,169.5C 28.8902,170.391 28.5569,171.391 28.5,172.5C 27.3951,173.6 26.0618,174.267 24.5,174.5C 25.1217,173.373 25.955,172.373 27,171.5C 27.4999,153.503 27.6666,135.503 27.5,117.5 Z"/></g>
<g><path style="opacity:1" fill="#c2737d" d="M 101.5,117.5 C 102.167,135.167 102.833,152.833 103.5,170.5C 103.167,171.167 102.833,171.833 102.5,172.5C 102.167,172.5 101.833,172.5 101.5,172.5C 101.5,154.167 101.5,135.833 101.5,117.5 Z"/></g>
<g><path style="opacity:1" fill="#492b2e" d="M 158.5,115.5 C 158.833,115.5 159.167,115.5 159.5,115.5C 156.098,118.895 153.098,122.562 150.5,126.5C 149.833,126.167 149.167,125.833 148.5,125.5C 151.5,121.833 154.833,118.5 158.5,115.5 Z"/></g>
<g><path style="opacity:1" fill="#60393d" d="M 211.5,113.5 C 212.167,113.833 212.833,114.167 213.5,114.5C 212.207,116.296 210.707,117.963 209,119.5C 208.5,131.162 208.333,142.829 208.5,154.5C 207.833,143.167 207.167,131.833 206.5,120.5C 208.58,118.427 210.246,116.093 211.5,113.5 Z"/></g>
<g><path style="opacity:1" fill="#ba757c" d="M 57.5,157.5 C 57.8284,145.322 57.4951,133.322 56.5,121.5C 56.7828,120.711 57.2828,120.044 58,119.5C 58.8267,132.34 58.66,145.007 57.5,157.5 Z"/></g>
<g><path style="opacity:1" fill="#f997a1" d="M 352.5,162.5 C 352.167,162.5 351.833,162.5 351.5,162.5C 350.319,160.933 348.653,160.099 346.5,160C 343.24,159.216 340.073,159.383 337,160.5C 336.161,159.376 334.994,158.709 333.5,158.5C 325.507,157.287 317.507,156.12 309.5,155C 313.682,150.651 318.015,146.485 322.5,142.5C 331.733,144.988 341.066,145.988 350.5,145.5C 342.284,143.429 333.951,141.762 325.5,140.5C 321.222,140.949 317.722,139.283 315,135.5C 313.85,133.246 313.516,130.913 314,128.5C 318.348,123.985 322.848,119.651 327.5,115.5C 326.483,124.982 330.483,128.315 339.5,125.5C 342.693,127.399 346.193,128.399 350,128.5C 352.034,128.646 353.701,127.98 355,126.5C 355.483,127.448 355.649,128.448 355.5,129.5C 363.89,130.675 372.224,132.175 380.5,134C 382.049,135.214 383.215,136.714 384,138.5C 384.667,144.5 384.667,150.5 384,156.5C 379.333,161.167 374.667,165.833 370,170.5C 369.8,163.117 369.3,155.784 368.5,148.5C 367.975,147.808 367.308,147.308 366.5,147C 361.493,145.745 356.493,145.578 351.5,146.5C 355.5,147.333 359.5,148.167 363.5,149C 363.957,149.414 364.291,149.914 364.5,150.5C 360.785,154.881 356.785,158.881 352.5,162.5 Z"/></g>
<g><path style="opacity:1" fill="#f4959f" d="M 131.5,120.5 C 131.833,120.5 132.167,120.5 132.5,120.5C 131.899,127.289 132.566,133.789 134.5,140C 134,140.5 133.5,141 133,141.5C 132.667,147.167 132.333,152.833 132,158.5C 127.631,163.037 123.131,167.37 118.5,171.5C 118.818,166.968 118.485,162.634 117.5,158.5C 118.407,150.208 118.74,141.875 118.5,133.5C 122.5,128.833 126.833,124.5 131.5,120.5 Z"/></g>
<g><path style="opacity:1" fill="#f897a1" d="M 206.5,120.5 C 207.167,131.833 207.833,143.167 208.5,154.5C 208.833,155.167 209.167,155.833 209.5,156.5C 204.5,161.167 199.5,165.833 194.5,170.5C 194.818,165.968 194.485,161.634 193.5,157.5C 193.167,156.833 192.833,156.167 192.5,155.5C 193.329,148.011 193.829,140.344 194,132.5C 198.669,128.997 202.836,124.997 206.5,120.5 Z"/></g>
<g><path style="opacity:1" fill="#f897a2" d="M 148.5,125.5 C 149.167,125.833 149.833,126.167 150.5,126.5C 154.055,132.245 159.055,135.745 165.5,137C 160.319,142.348 154.985,147.515 149.5,152.5C 144.5,148.167 139.833,143.5 135.5,138.5C 140.188,134.479 144.521,130.146 148.5,125.5 Z"/></g>
<g><path style="opacity:1" fill="#271718" d="M 116.5,118.5 C 115.892,123.944 116.558,128.944 118.5,133.5C 118.74,141.875 118.407,150.208 117.5,158.5C 116.833,158.5 116.167,158.5 115.5,158.5C 115.729,144.912 116.062,131.579 116.5,118.5 Z"/></g>
<g><path style="opacity:1" fill="#7b4b51" d="M 191.5,136.5 C 191.177,143.022 191.51,149.355 192.5,155.5C 192.833,156.167 193.167,156.833 193.5,157.5C 192.391,157.557 191.391,157.89 190.5,158.5C 190.175,150.981 190.508,143.648 191.5,136.5 Z"/></g>
<g><path style="opacity:1" fill="#f3949e" d="M 81.5,170.5 C 80.8333,163.833 80.1667,157.167 79.5,150.5C 79.1667,149.833 78.8333,149.167 78.5,148.5C 83.798,143.703 88.9646,138.703 94,133.5C 94.6667,141.5 94.6667,149.5 94,157.5C 89.6298,161.702 85.4632,166.036 81.5,170.5 Z"/></g>
<g><path style="opacity:1" fill="#3b2326" d="M 226.5,138.5 C 226.5,139.167 226.5,139.833 226.5,140.5C 220.833,145.833 215.167,151.167 209.5,156.5C 209.167,155.833 208.833,155.167 208.5,154.5C 214.778,149.56 220.778,144.227 226.5,138.5 Z"/></g>
<g><path style="opacity:1" fill="#000000" d="M 79.5,150.5 C 79.6663,157.508 79.4996,164.508 79,171.5C 71.9213,172.48 64.7546,172.813 57.5,172.5C 57.369,171.761 57.5357,171.094 58,170.5C 64.7558,163.239 71.9225,156.572 79.5,150.5 Z"/></g>
<g><path style="opacity:1" fill="#0c0707" d="M 193.5,157.5 C 193.666,162.179 193.499,166.845 193,171.5C 188.263,172.469 183.43,172.803 178.5,172.5C 178.5,171.833 178.5,171.167 178.5,170.5C 182.167,166.167 186.167,162.167 190.5,158.5C 191.391,157.89 192.391,157.557 193.5,157.5 Z"/></g>
<g><path style="opacity:1" fill="#060303" d="M 115.5,158.5 C 116.167,158.5 116.833,158.5 117.5,158.5C 118.485,162.634 118.818,166.968 118.5,171.5C 115.81,173.065 112.81,173.731 109.5,173.5C 106.975,173.497 104.641,173.163 102.5,172.5C 102.833,171.833 103.167,171.167 103.5,170.5C 107.833,166.833 111.833,162.833 115.5,158.5 Z"/></g>
<g><path style="opacity:1" fill="#3e2528" d="M 78.5,148.5 C 78.8333,149.167 79.1667,149.833 79.5,150.5C 71.9225,156.572 64.7558,163.239 58,170.5C 57.5357,171.094 57.369,171.761 57.5,172.5C 56.8333,172.167 56.1667,171.833 55.5,171.5C 62.8333,163.5 70.5,155.833 78.5,148.5 Z"/></g>
<g><path style="opacity:1" fill="#472a2d" d="M 351.5,162.5 C 351.833,162.5 352.167,162.5 352.5,162.5C 349.43,165.564 346.763,168.897 344.5,172.5C 343.833,172.167 343.167,171.833 342.5,171.5C 345.167,168.167 348.167,165.167 351.5,162.5 Z"/></g>
<g><path style="opacity:1" fill="#875056" d="M 79.5,150.5 C 80.1667,157.167 80.8333,163.833 81.5,170.5C 80.5,172.167 79.1667,173.5 77.5,174.5C 70.8333,173.833 64.1667,173.167 57.5,172.5C 64.7546,172.813 71.9213,172.48 79,171.5C 79.4996,164.508 79.6663,157.508 79.5,150.5 Z"/></g>
<g><path style="opacity:1" fill="#8c545a" d="M 210.5,174.5 C 205.5,173.833 200.5,173.167 195.5,172.5C 200.844,172.666 206.177,172.499 211.5,172C 212.275,170.77 213.275,170.437 214.5,171C 213.295,172.376 211.962,173.542 210.5,174.5 Z"/></g>
<g><path style="opacity:1" fill="#fb98a3" d="M 55.5,171.5 C 56.1667,171.833 56.8333,172.167 57.5,172.5C 64.1667,173.167 70.8333,173.833 77.5,174.5C 73.5,178.167 69.5,181.833 65.5,185.5C 48.83,185.667 32.1633,185.5 15.5,185C 18.535,181.63 21.8683,178.63 25.5,176C 24.944,175.617 24.6107,175.117 24.5,174.5C 26.0618,174.267 27.3951,173.6 28.5,172.5C 37.818,172.27 46.818,171.936 55.5,171.5 Z"/></g>
<g><path style="opacity:1" fill="#fc99a4" d="M 118.5,171.5 C 119.694,172.777 121.36,173.444 123.5,173.5C 126.011,173.712 128.178,173.045 130,171.5C 130.464,172.094 130.631,172.761 130.5,173.5C 140.833,174.167 151.167,174.833 161.5,175.5C 157.5,178.833 153.833,182.5 150.5,186.5C 129.66,186.831 108.993,186.497 88.5,185.5C 92.5,180.833 96.8333,176.5 101.5,172.5C 101.833,172.5 102.167,172.5 102.5,172.5C 104.641,173.163 106.975,173.497 109.5,173.5C 112.81,173.731 115.81,173.065 118.5,171.5 Z"/></g>
<g><path style="opacity:1" fill="#b66e75" d="M 161.5,175.5 C 151.167,174.833 140.833,174.167 130.5,173.5C 141.172,173.667 151.839,173.5 162.5,173C 163.275,171.77 164.275,171.437 165.5,172C 164.295,173.376 162.962,174.542 161.5,175.5 Z"/></g>
<g><path style="opacity:1" fill="#fd98a2" d="M 203.5,181.5 C 202.5,183.167 201.167,184.5 199.5,185.5C 188.674,184.67 177.674,184.17 166.5,184C 170,180.5 173.5,177 177,173.5C 187.246,173.758 197.412,174.258 207.5,175C 205.077,176.571 203.744,178.737 203.5,181.5 Z"/></g>
<g><path style="opacity:1" fill="#e2909a" d="M 193.5,157.5 C 194.485,161.634 194.818,165.968 194.5,170.5C 194.328,171.492 194.662,172.158 195.5,172.5C 200.5,173.167 205.5,173.833 210.5,174.5C 208.5,177.167 206.167,179.5 203.5,181.5C 203.744,178.737 205.077,176.571 207.5,175C 197.412,174.258 187.246,173.758 177,173.5C 173.5,177 170,180.5 166.5,184C 177.674,184.17 188.674,184.67 199.5,185.5C 187.34,186.66 175.007,186.827 162.5,186C 167.37,181.298 172.037,176.465 176.5,171.5C 177.167,171.833 177.833,172.167 178.5,172.5C 183.43,172.803 188.263,172.469 193,171.5C 193.499,166.845 193.666,162.179 193.5,157.5 Z"/></g>
<g><path style="opacity:1" fill="#d1848d" d="M 342.5,171.5 C 343.167,171.833 343.833,172.167 344.5,172.5C 352.174,172.334 359.841,172.5 367.5,173C 366.956,173.717 366.289,174.217 365.5,174.5C 352.152,174.109 338.986,173.776 326,173.5C 321.607,177.403 317.107,181.069 312.5,184.5C 316.479,179.854 320.812,175.521 325.5,171.5C 331.296,172.808 336.963,172.808 342.5,171.5 Z"/></g>
<g><path style="opacity:1" fill="#fb98a2" d="M 296.5,117.5 C 297.167,130.5 297.833,143.5 298.5,156.5C 295.575,160.97 291.742,165.303 287,169.5C 286.209,170.745 285.709,172.078 285.5,173.5C 293.44,175.308 301.773,176.141 310.5,176C 307.5,179 304.5,182 301.5,185C 283.5,185.667 265.5,185.667 247.5,185C 250.5,182 253.5,179 256.5,176C 260.795,176.016 264.795,175.183 268.5,173.5C 273.975,174.081 279.142,173.414 284,171.5C 283.934,157.249 284.267,142.916 285,128.5C 288.702,124.63 292.536,120.963 296.5,117.5 Z"/></g>
<g><path style="opacity:1" fill="#fd99a4" d="M 365.5,174.5 C 363.5,177.167 361.167,179.5 358.5,181.5C 356.336,180.882 354.67,181.882 353.5,184.5C 339.672,185.826 326.006,185.826 312.5,184.5C 317.107,181.069 321.607,177.403 326,173.5C 338.986,173.776 352.152,174.109 365.5,174.5 Z"/></g>
<g><path style="opacity:1" fill="#d18892" d="M 24.5,174.5 C 24.6107,175.117 24.944,175.617 25.5,176C 21.8683,178.63 18.535,181.63 15.5,185C 32.1633,185.5 48.83,185.667 65.5,185.5C 65.5,186.167 65.1667,186.5 64.5,186.5C 47.1667,186.5 29.8333,186.5 12.5,186.5C 16.1667,182.167 20.1667,178.167 24.5,174.5 Z"/></g>
<g><path style="opacity:1" fill="#cd858d" d="M 358.5,181.5 C 357.375,183.129 356.041,184.629 354.5,186C 339.833,186.667 325.167,186.667 310.5,186C 311.044,185.283 311.711,184.783 312.5,184.5C 326.006,185.826 339.672,185.826 353.5,184.5C 354.67,181.882 356.336,180.882 358.5,181.5 Z"/></g>
<g><path style="opacity:1" fill="#261618" d="M 12.5,186.5 C 29.8333,186.5 47.1667,186.5 64.5,186.5C 46.9313,187.179 29.2647,187.846 11.5,188.5C 10.8333,188.5 10.5,188.167 10.5,187.5C 10.8417,186.662 11.5084,186.328 12.5,186.5 Z"/></g>
<g><path style="opacity:1" fill="#ac6c73" d="M 88.5,185.5 C 108.993,186.497 129.66,186.831 150.5,186.5C 129.337,187.663 108.004,187.829 86.5,187C 87.0442,186.283 87.7109,185.783 88.5,185.5 Z"/></g>
<g><path style="opacity:1" fill="#b3727a" d="M 245.5,185.5 C 263.993,186.497 282.659,186.83 301.5,186.5C 282.338,187.662 263.004,187.829 243.5,187C 244.044,186.283 244.711,185.783 245.5,185.5 Z"/></g>
<g><path style="opacity:1" fill="#a7a6a6" d="M 13.5,203.5 C 13.5106,205.017 14.1772,206.184 15.5,207C 14.2068,207.49 12.8734,207.657 11.5,207.5C 11.5,203.833 11.5,200.167 11.5,196.5C 16.154,196.395 16.654,197.729 13,200.5C 12.2599,201.749 12.4265,202.749 13.5,203.5 Z"/></g>
<g><path style="opacity:1" fill="#a0a0a0" d="M 279.5,199.5 C 275.154,199.334 270.821,199.501 266.5,200C 268.134,200.494 269.801,200.66 271.5,200.5C 271.5,203.5 271.5,206.5 271.5,209.5C 270.527,207.052 270.194,204.385 270.5,201.5C 268.833,201.5 267.167,201.5 265.5,201.5C 265.5,200.5 265.5,199.5 265.5,198.5C 270.363,198.181 275.03,198.514 279.5,199.5 Z"/></g>
<g><path style="opacity:1" fill="#b0b0b0" d="M 15.5,204.5 C 25.1351,202.126 24.8017,201.126 14.5,201.5C 16.3104,197.689 19.3104,196.023 23.5,196.5C 23.5,200.167 23.5,203.833 23.5,207.5C 20.2118,207.984 17.5452,206.984 15.5,204.5 Z"/></g>
<g><path style="opacity:1" fill="#e1e1e1" d="M 233.5,198.5 C 233.5,202.167 233.5,205.833 233.5,209.5C 232.5,209.5 231.5,209.5 230.5,209.5C 231.046,200.653 229.88,200.32 227,208.5C 226.439,209.022 225.772,209.355 225,209.5C 223.065,207.966 221.899,205.966 221.5,203.5C 221.44,202.957 221.107,202.624 220.5,202.5C 219.526,204.743 219.192,207.076 219.5,209.5C 218.833,209.5 218.167,209.5 217.5,209.5C 217.5,206.167 217.5,202.833 217.5,199.5C 218.833,199.5 220.167,199.5 221.5,199.5C 222.892,201.273 224.059,203.273 225,205.5C 226.164,203.351 227.33,201.185 228.5,199C 230.134,198.506 231.801,198.34 233.5,198.5 Z"/></g>
<g><path style="opacity:1" fill="#dcdcdc" d="M 249.5,203.5 C 250.035,206.238 249.035,208.072 246.5,209C 242.091,210.262 238.257,209.428 235,206.5C 234.322,204.402 234.489,202.402 235.5,200.5C 238.859,198.513 242.525,198.013 246.5,199C 248.439,199.908 249.439,201.408 249.5,203.5 Z"/></g>
<g><path style="opacity:1" fill="#e1e1e1" d="M 265.5,201.5 C 265.054,209.121 261.054,211.621 253.5,209C 251.393,207.736 250.393,205.903 250.5,203.5C 250.859,201.629 251.859,200.129 253.5,199C 257.981,197.888 261.981,198.721 265.5,201.5 Z"/></g>
<g><path style="opacity:1" fill="#f6f6f6" d="M 293.5,209.5 C 292.022,208.552 291.022,207.219 290.5,205.5C 288.369,204.686 286.036,204.186 283.5,204C 286.036,203.814 288.369,203.314 290.5,202.5C 291.158,201.602 291.824,200.602 292.5,199.5C 293.487,202.768 293.82,206.102 293.5,209.5 Z"/></g>
<g><path style="opacity:1" fill="#dadada" d="M 313.5,200.5 C 313.423,201.75 312.756,202.583 311.5,203C 314.993,204.478 315.326,206.478 312.5,209C 308.745,209.755 305.078,209.589 301.5,208.5C 300.433,206.121 301.433,205.121 304.5,205.5C 301.687,204.257 301.021,202.257 302.5,199.5C 306.462,197.957 310.128,198.29 313.5,200.5 Z"/></g>
<g><path style="opacity:1" fill="#dadada" d="M 329.5,207.5 C 325.731,209.419 321.731,209.919 317.5,209C 315.771,207.211 315.104,205.044 315.5,202.5C 316.654,199.414 318.988,198.081 322.5,198.5C 326.589,198.021 328.922,199.688 329.5,203.5C 327.174,202.849 324.841,202.182 322.5,201.5C 321.5,201.667 320.5,201.833 319.5,202C 317.89,205.405 319.056,206.905 323,206.5C 325.239,205.909 327.406,205.242 329.5,204.5C 329.5,205.5 329.5,206.5 329.5,207.5 Z"/></g>
<g><path style="opacity:1" fill="#dbdbdb" d="M 341.5,209.5 C 341.5,208.167 341.5,206.833 341.5,205.5C 338.833,205.5 336.167,205.5 333.5,205.5C 333.5,206.833 333.5,208.167 333.5,209.5C 331.821,209.715 330.821,209.048 330.5,207.5C 330.5,204.5 330.5,201.5 330.5,198.5C 334.514,198.334 338.514,198.501 342.5,199C 343.574,199.739 344.241,200.739 344.5,202C 343.873,204.411 343.873,206.911 344.5,209.5C 343.5,209.5 342.5,209.5 341.5,209.5 Z"/></g>
<g><path style="opacity:1" fill="#e0e0e0" d="M 348.5,198.5 C 352.839,197.846 356.673,198.846 360,201.5C 361.041,204.636 360.207,207.136 357.5,209C 354.5,209.667 351.5,209.667 348.5,209C 344.565,205.504 344.565,202.004 348.5,198.5 Z"/></g>
<g><path style="opacity:1" fill="#e0dfdf" d="M 374.5,198.5 C 375.5,198.5 376.5,198.5 377.5,198.5C 377.5,201.167 377.5,203.833 377.5,206.5C 380.167,206.5 382.833,206.5 385.5,206.5C 385.5,207.5 385.5,208.5 385.5,209.5C 381.833,209.5 378.167,209.5 374.5,209.5C 374.5,205.833 374.5,202.167 374.5,198.5 Z"/></g>
<g><path style="opacity:1" fill="#d7d7d7" d="M 215.5,205.5 C 215.719,206.675 215.386,207.675 214.5,208.5C 210.892,209.593 207.225,209.76 203.5,209C 202.663,207.989 202.33,206.822 202.5,205.5C 203.5,205.5 204.5,205.5 205.5,205.5C 203.31,204.626 202.31,202.959 202.5,200.5C 205.859,198.513 209.525,198.013 213.5,199C 215.957,200.512 215.957,201.846 213.5,203C 214.381,203.708 215.047,204.542 215.5,205.5 Z"/></g>
<g><path style="opacity:1" fill="#838383" d="M 221.5,199.5 C 220.167,199.5 218.833,199.5 217.5,199.5C 217.5,202.833 217.5,206.167 217.5,209.5C 216.566,208.432 216.232,207.099 216.5,205.5C 216.5,203.167 216.5,200.833 216.5,198.5C 218.415,198.216 220.081,198.549 221.5,199.5 Z"/></g>
<g><path style="opacity:1" fill="#e0e0e0" d="M 279.5,199.5 C 279.5,200.167 279.5,200.833 279.5,201.5C 277.833,201.5 276.167,201.5 274.5,201.5C 274.5,204.167 274.5,206.833 274.5,209.5C 273.5,209.5 272.5,209.5 271.5,209.5C 271.5,206.5 271.5,203.5 271.5,200.5C 269.801,200.66 268.134,200.494 266.5,200C 270.821,199.501 275.154,199.334 279.5,199.5 Z"/></g>
<g><path style="opacity:1" fill="#979797" d="M 294.5,209.5 C 294.167,209.5 293.833,209.5 293.5,209.5C 293.82,206.102 293.487,202.768 292.5,199.5C 291.824,200.602 291.158,201.602 290.5,202.5C 290.5,201.167 290.5,199.833 290.5,198.5C 291.833,198.5 293.167,198.5 294.5,198.5C 294.5,202.167 294.5,205.833 294.5,209.5 Z"/></g>
<g><path style="opacity:1" fill="#858585" d="M 340.5,201.5 C 337.918,201.025 335.918,201.692 334.5,203.5C 333.596,202.791 333.263,201.791 333.5,200.5C 336.059,200.198 338.393,200.532 340.5,201.5 Z"/></g>
<g><path style="opacity:1" fill="#232323" d="M 206.5,200.5 C 208.288,200.215 209.955,200.548 211.5,201.5C 210.667,201.833 209.833,202.167 209,202.5C 207.624,202.316 206.791,201.649 206.5,200.5 Z"/></g>
<g><path style="opacity:1" fill="#101010" d="M 238.5,201.5 C 240.857,201.337 243.19,201.503 245.5,202C 246.833,203.333 246.833,204.667 245.5,206C 243.19,206.497 240.857,206.663 238.5,206.5C 238.5,204.833 238.5,203.167 238.5,201.5 Z"/></g>
<g><path style="opacity:1" fill="#171717" d="M 254.5,201.5 C 256.857,201.337 259.19,201.503 261.5,202C 262.517,203.049 262.684,204.216 262,205.5C 259.599,206.602 257.099,206.769 254.5,206C 253.272,204.51 253.272,203.01 254.5,201.5 Z"/></g>
<g><path style="opacity:1" fill="#272727" d="M 304.5,200.5 C 306.604,200.201 308.604,200.534 310.5,201.5C 309.5,201.833 308.5,202.167 307.5,202.5C 305.97,202.36 304.97,201.693 304.5,200.5 Z"/></g>
<g><path style="opacity:1" fill="#161616" d="M 349.5,201.5 C 351.857,201.337 354.19,201.503 356.5,202C 357.517,203.049 357.684,204.216 357,205.5C 354.599,206.602 352.099,206.769 349.5,206C 348.272,204.51 348.272,203.01 349.5,201.5 Z"/></g>
<g><path style="opacity:1" fill="#727272" d="M 14.5,201.5 C 24.8017,201.126 25.1351,202.126 15.5,204.5C 14.8333,204.167 14.1667,203.833 13.5,203.5C 13.3284,202.508 13.6618,201.842 14.5,201.5 Z"/></g>
<g><path style="opacity:1" fill="#2f2e2e" d="M 340.5,201.5 C 341.043,201.56 341.376,201.893 341.5,202.5C 339.257,203.474 336.924,203.808 334.5,203.5C 335.918,201.692 337.918,201.025 340.5,201.5 Z"/></g>
<g><path style="opacity:1" fill="#8f8f8f" d="M 372.5,209.5 C 370.365,207.631 367.698,206.964 364.5,207.5C 364.813,204.753 364.48,202.086 363.5,199.5C 362.513,202.768 362.18,206.102 362.5,209.5C 361.518,206.038 361.185,202.371 361.5,198.5C 362.833,198.5 364.167,198.5 365.5,198.5C 365.5,201.167 365.5,203.833 365.5,206.5C 368.167,206.5 370.833,206.5 373.5,206.5C 373.737,207.791 373.404,208.791 372.5,209.5 Z"/></g>
<g><path style="opacity:1" fill="#f2f2f2" d="M 372.5,209.5 C 369.167,209.5 365.833,209.5 362.5,209.5C 362.18,206.102 362.513,202.768 363.5,199.5C 364.48,202.086 364.813,204.753 364.5,207.5C 367.698,206.964 370.365,207.631 372.5,209.5 Z"/></g>
<g><path style="opacity:1" fill="#adacac" d="M 290.5,202.5 C 288.369,203.314 286.036,203.814 283.5,204C 286.036,204.186 288.369,204.686 290.5,205.5C 288.5,205.5 286.5,205.5 284.5,205.5C 284.768,207.099 284.434,208.432 283.5,209.5C 282.657,206.072 282.324,202.738 282.5,199.5C 281.513,202.768 281.18,206.102 281.5,209.5C 280.527,207.052 280.194,204.385 280.5,201.5C 280.5,200.5 280.5,199.5 280.5,198.5C 281.833,198.5 283.167,198.5 284.5,198.5C 284.5,199.833 284.5,201.167 284.5,202.5C 286.5,202.5 288.5,202.5 290.5,202.5 Z"/></g>
<g><path style="opacity:1" fill="#fafafa" d="M 283.5,209.5 C 282.833,209.5 282.167,209.5 281.5,209.5C 281.18,206.102 281.513,202.768 282.5,199.5C 282.324,202.738 282.657,206.072 283.5,209.5 Z"/></g>
<g><path style="opacity:1" fill="#7e7e7e" d="M 221.5,203.5 C 220.833,205.5 220.167,207.5 219.5,209.5C 219.192,207.076 219.526,204.743 220.5,202.5C 221.107,202.624 221.44,202.957 221.5,203.5 Z"/></g>
<g><path style="opacity:1" fill="#585758" d="M 341.5,209.5 C 340.596,208.791 340.263,207.791 340.5,206.5C 338.5,206.5 336.5,206.5 334.5,206.5C 334.5,207.5 334.5,208.5 334.5,209.5C 334.167,209.5 333.833,209.5 333.5,209.5C 333.5,208.167 333.5,206.833 333.5,205.5C 336.167,205.5 338.833,205.5 341.5,205.5C 341.5,206.833 341.5,208.167 341.5,209.5 Z"/></g>
<g><path style="opacity:1" fill="#2e2e2e" d="M 205.5,205.5 C 207.924,205.192 210.257,205.526 212.5,206.5C 211.5,206.833 210.5,207.167 209.5,207.5C 207.645,207.66 206.312,206.993 205.5,205.5 Z"/></g>
<g><path style="opacity:1" fill="#292828" d="M 304.5,205.5 C 306.604,205.201 308.604,205.534 310.5,206.5C 309.5,206.833 308.5,207.167 307.5,207.5C 305.97,207.36 304.97,206.693 304.5,205.5 Z"/></g>
<g><path style="opacity:1" fill="#3e3d3d" d="M 316.5,281.5 C 317.805,283.397 318.471,285.731 318.5,288.5C 318.167,290.833 317.833,293.167 317.5,295.5C 316.507,290.88 316.173,286.214 316.5,281.5 Z"/></g>
<g><path style="opacity:1" fill="#2b2a2a" d="M 331.5,292.5 C 328.939,290.323 328.939,288.156 331.5,286C 334.146,285.503 336.813,285.336 339.5,285.5C 339.281,284.325 339.614,283.325 340.5,282.5C 341.26,286.498 341.593,290.831 341.5,295.5C 340.5,295.5 339.5,295.5 338.5,295.5C 338.813,292.753 338.48,290.086 337.5,287.5C 336.676,290.663 334.676,292.33 331.5,292.5 Z"/></g>
<g><path style="opacity:1" fill="#3c3b3c" d="M 251.5,282.5 C 252.376,282.369 253.043,282.702 253.5,283.5C 253.52,287.995 253.354,292.662 253,297.5C 252.586,297.957 252.086,298.291 251.5,298.5C 251.379,293.348 251.379,288.015 251.5,282.5 Z"/></g>
<g><path style="opacity:1" fill="#3d3c3c" d="M 258.5,285.5 C 259.833,285.5 261.167,285.5 262.5,285.5C 262.826,289.884 262.492,294.217 261.5,298.5C 260.614,297.675 260.281,296.675 260.5,295.5C 255.341,295.864 253.508,293.53 255,288.5C 256.145,287.364 257.312,286.364 258.5,285.5 Z"/></g>
<g><path style="opacity:1" fill="#434243" d="M 265.5,286.5 C 266.468,288.607 266.802,290.941 266.5,293.5C 267.833,293.5 269.167,293.5 270.5,293.5C 270.192,291.076 270.526,288.743 271.5,286.5C 272.833,289.5 272.833,292.5 271.5,295.5C 269.674,295.08 267.674,295.08 265.5,295.5C 265.5,292.5 265.5,289.5 265.5,286.5 Z"/></g>
<g><path style="opacity:1" fill="#302f30" d="M 306.5,285.5 C 308.39,286.18 310.39,286.347 312.5,286C 316.12,291.519 314.786,294.685 308.5,295.5C 308.719,296.675 308.386,297.675 307.5,298.5C 306.508,294.217 306.174,289.884 306.5,285.5 Z"/></g>
<g><path style="opacity:1" fill="#434243" d="M 320.5,286.5 C 321.468,288.607 321.802,290.941 321.5,293.5C 322.833,293.5 324.167,293.5 325.5,293.5C 325.192,291.076 325.526,288.743 326.5,286.5C 327.833,289.5 327.833,292.5 326.5,295.5C 324.674,295.08 322.674,295.08 320.5,295.5C 320.5,292.5 320.5,289.5 320.5,286.5 Z"/></g>
<g><path style="opacity:1" fill="#3c3b3c" d="M 343.5,285.5 C 345.611,285.772 347.777,286.105 350,286.5C 350.821,289.554 350.655,292.554 349.5,295.5C 348.52,292.914 348.187,290.247 348.5,287.5C 347.5,287.5 346.5,287.5 345.5,287.5C 345.813,290.247 345.48,292.914 344.5,295.5C 343.513,292.232 343.18,288.898 343.5,285.5 Z"/></g>
<g><path style="opacity:1" fill="#3c3b3c" d="M 363.5,285.5 C 365.611,285.772 367.777,286.105 370,286.5C 370.821,289.554 370.655,292.554 369.5,295.5C 368.52,292.914 368.187,290.247 368.5,287.5C 367.5,287.5 366.5,287.5 365.5,287.5C 365.813,290.247 365.48,292.914 364.5,295.5C 363.513,292.232 363.18,288.898 363.5,285.5 Z"/></g>
<g><path style="opacity:1" fill="#403e3f" d="M 383.5,284.5 C 386.799,285.699 387.132,287.699 384.5,290.5C 384.39,292.374 385.056,293.874 386.5,295C 385.207,295.49 383.873,295.657 382.5,295.5C 382.777,292.552 382.444,289.719 381.5,287C 382.381,286.292 383.047,285.458 383.5,284.5 Z"/></g>
<g><path style="opacity:1" fill="#0b0808" d="M 257.5,287.5 C 258.5,287.5 259.5,287.5 260.5,287.5C 260.5,289.5 260.5,291.5 260.5,293.5C 259.167,293.5 257.833,293.5 256.5,293.5C 256.325,291.379 256.659,289.379 257.5,287.5 Z"/></g>
<g><path style="opacity:1" fill="#3c3b3b" d="M 284.5,285.5 C 287.071,285.625 289.737,285.958 292.5,286.5C 293.052,288.333 293.885,290 295,291.5C 295.739,289.779 296.573,288.113 297.5,286.5C 297.833,286.833 298.167,287.167 298.5,287.5C 297.039,290.382 295.873,293.382 295,296.5C 294.163,298.007 292.996,298.507 291.5,298C 293.811,294.511 293.645,291.011 291,287.5C 289.701,287.034 288.201,287.034 286.5,287.5C 286.813,290.247 286.48,292.914 285.5,295.5C 284.513,292.232 284.18,288.898 284.5,285.5 Z"/></g>
<g><path style="opacity:1" fill="#313030" d="M 277.5,285.5 C 280.321,285.316 281.988,286.649 282.5,289.5C 281.176,290.935 279.51,291.935 277.5,292.5C 278.381,293.971 279.714,294.804 281.5,295C 276.141,296.143 273.974,293.976 275,288.5C 275.698,287.309 276.531,286.309 277.5,285.5 Z"/></g>
<g><path style="opacity:1" fill="#424041" d="M 354.5,285.5 C 358.335,286.004 358.335,287.004 354.5,288.5C 355.711,289.874 356.711,291.374 357.5,293C 356.499,295.502 354.833,296.002 352.5,294.5C 353.616,294.598 354.616,294.098 355.5,293C 354.711,291.374 353.711,289.874 352.5,288.5C 353.193,287.482 353.859,286.482 354.5,285.5 Z"/></g>
<g><path style="opacity:1" fill="#313030" d="M 375.5,285.5 C 378.321,285.316 379.988,286.649 380.5,289.5C 379.176,290.935 377.51,291.935 375.5,292.5C 376.381,293.971 377.714,294.804 379.5,295C 374.141,296.143 371.974,293.976 373,288.5C 373.698,287.309 374.531,286.309 375.5,285.5 Z"/></g>
<g><path style="opacity:1" fill="#333232" d="M 331.5,292.5 C 332.952,293.302 334.618,293.802 336.5,294C 337.727,295.587 337.394,296.921 335.5,298C 333.833,298.667 332.167,298.667 330.5,298C 330.384,296.732 330.051,295.398 329.5,294C 330.044,293.283 330.711,292.783 331.5,292.5 Z"/></g>
</svg>
