<?xml version="1.0" encoding="UTF-8"?>
<!DOCTYPE svg PUBLIC "-//W3C//DTD SVG 1.1//EN" "http://www.w3.org/Graphics/SVG/1.1/DTD/svg11.dtd">
<svg xmlns="http://www.w3.org/2000/svg" version="1.1" width="400px" height="400px" style="shape-rendering:geometricPrecision; text-rendering:geometricPrecision; image-rendering:optimizeQuality; fill-rule:evenodd; clip-rule:evenodd" xmlns:xlink="http://www.w3.org/1999/xlink">
<g><path style="opacity:0.999" fill="#000000" d="M 30.5,-0.5 C 143.167,-0.5 255.833,-0.5 368.5,-0.5C 384.5,4.16667 394.833,14.5 399.5,30.5C 399.5,143.167 399.5,255.833 399.5,368.5C 394.833,384.5 384.5,394.833 368.5,399.5C 255.833,399.5 143.167,399.5 30.5,399.5C 14.5,394.833 4.16667,384.5 -0.5,368.5C -0.5,255.833 -0.5,143.167 -0.5,30.5C 4.16667,14.5 14.5,4.16667 30.5,-0.5 Z"/></g>
<g><path style="opacity:1" fill="#fdfdfd" d="M 99.5,142.5 C 109.396,142.223 118.396,144.89 126.5,150.5C 143.928,141.185 161.928,140.019 180.5,147C 185.333,149.582 190,152.415 194.5,155.5C 219.331,138.356 244.331,138.189 269.5,155C 280.056,164.278 286.89,175.778 290,189.5C 290.5,212.831 290.667,236.164 290.5,259.5C 267.744,259.248 254.244,247.914 250,225.5C 249.667,215.167 249.333,204.833 249,194.5C 242.893,183.465 234.06,180.632 222.5,186C 219.567,188.264 217.4,191.098 216,194.5C 215.5,216.164 215.333,237.831 215.5,259.5C 193.545,259.365 180.045,248.698 175,227.5C 174.667,216.833 174.333,206.167 174,195.5C 168.403,183.633 159.57,180.466 147.5,186C 143.806,188.687 141.306,192.187 140,196.5C 139.5,217.497 139.333,238.497 139.5,259.5C 118.485,259.75 105.318,249.75 100,229.5C 99.5,200.502 99.3334,171.502 99.5,142.5 Z"/></g>
</svg>
