<?xml version="1.0" encoding="UTF-8"?>
<svg version="1.1" xmlns="http://www.w3.org/2000/svg" width="512" height="512">
<path d="M0 0 C1.22428711 0.00829834 2.44857422 0.01659668 3.70996094 0.02514648 C29.7414842 0.50829431 52.62718113 11.29284041 70.84326172 29.91015625 C90.74941837 51.52294973 96.187107 77.42719521 95.42480469 106.05126953 C94.22880864 129.21951702 81.60556542 150.60041072 65.25 166.4375 C42.58392582 186.53196154 15.93697636 192.14374838 -13.75 190.4375 C-37.42783489 187.90012912 -59.68380878 174.00175266 -74.66650391 155.91772461 C-92.26074109 133.69680462 -97.49755276 106.53181522 -94.44970703 78.69482422 C-90.6289923 54.90904984 -76.58836663 33.56491464 -57.91015625 18.71875 C-40.80829945 6.37328106 -21.12700269 -0.1863802 0 0 Z M-44.7421875 58.625 C-55.06650305 71.03190281 -59.03458309 86.51590681 -57.75 102.4375 C-55.44833657 118.69429399 -46.82057827 131.89350094 -34.375 142.25 C-22.28414083 151.15574549 -7.6219252 154.85463206 7.25 153.4375 C24.62625859 150.30552671 38.21716331 142.07134534 48.72265625 127.80859375 C57.46518228 114.23643697 60.57296853 98.25037162 57.1875 82.4375 C52.75460335 66.97390705 43.84393644 54.19405543 30.25 45.4375 C4.04736228 30.93317414 -24.85345235 36.78638886 -44.7421875 58.625 Z " fill="#EA4234" transform="translate(411.75,160.5625)"/>
<path d="M0 0 C36.3 0 72.6 0 110 0 C110 13.53 110 27.06 110 41 C88.22 41 66.44 41 44 41 C44 52.22 44 63.44 44 75 C65.78 75 87.56 75 110 75 C110 88.53 110 102.06 110 116 C88.22 116 66.44 116 44 116 C44 127.22 44 138.44 44 150 C65.78 150 87.56 150 110 150 C110 163.53 110 177.06 110 191 C73.7 191 37.4 191 0 191 C0 127.97 0 64.94 0 0 Z " fill="#FABC05" transform="translate(175,158)"/>
<path d="M0 0 C8.5557854 6.48507826 16.5737033 14.68976484 22 24 C22 25.32 22 26.64 22 28 C19.86332283 29.79749165 17.8428394 31.26808462 15.5078125 32.765625 C14.5161055 33.42301666 14.5161055 33.42301666 13.50436401 34.09368896 C12.10467185 35.0178509 10.70056622 35.9353576 9.29248047 36.84667969 C7.13189636 38.245535 4.9850664 39.66366325 2.83984375 41.0859375 C1.4799261 41.98032247 0.11927289 42.87359021 -1.2421875 43.765625 C-1.88807831 44.19055237 -2.53396912 44.61547974 -3.19943237 45.05328369 C-7.765625 48 -7.765625 48 -10 48 C-11.0955696 46.66755049 -12.12674938 45.28183693 -13.125 43.875 C-19.29228791 35.7372508 -26.86395555 30.71950754 -37 29 C-44.18213596 28.34512662 -50.07474623 28.61427723 -56 33 C-59.87528724 36.34222371 -62.20893576 39.28234524 -62.875 44.4375 C-62.91625 45.613125 -62.9575 46.78875 -63 48 C-56.32433181 52.77447492 -49.26357226 56.59468938 -41.95401001 60.29196167 C-38.72749518 61.92617183 -35.51274887 63.58325694 -32.296875 65.23828125 C-31.66437332 65.56341202 -31.03187164 65.88854279 -30.38020325 66.223526 C-8.56754584 77.44810906 9.45792714 88.04109959 19.13671875 111.7890625 C22.39016789 123.89012673 20.66871663 137.84788857 14.4921875 148.6328125 C3.87668199 164.77825576 -10.78702593 173.35784534 -29.35180664 177.52832031 C-49.06590812 181.03967313 -69.47919743 177.30558706 -86 166 C-94.5557854 159.51492174 -102.5737033 151.31023516 -108 142 C-108 140.68 -108 139.36 -108 138 C-105.87598594 136.19022889 -103.86798861 134.7088499 -101.54296875 133.19921875 C-100.88420242 132.75858597 -100.2254361 132.31795319 -99.54670715 131.8639679 C-98.1513774 130.93540861 -96.75146138 130.01370999 -95.34741211 129.09838867 C-93.19494321 127.69236203 -91.06087344 126.26130905 -88.92773438 124.82617188 C-87.57133424 123.92814234 -86.2139439 123.03160626 -84.85546875 122.13671875 C-84.21473923 121.7066301 -83.5740097 121.27654144 -82.91386414 120.8334198 C-81.32534985 119.80796978 -79.66639196 118.89334385 -78 118 C-74.56934108 119.14355297 -74.2389128 119.78960109 -72.3125 122.6875 C-66.546072 130.65202184 -58.67785893 135.35822036 -49 137 C-41.81786404 137.65487338 -35.92525377 137.38572277 -30 133 C-26.12471276 129.65777629 -23.79106424 126.71765476 -23.125 121.5625 C-23.08375 120.386875 -23.0425 119.21125 -23 118 C-29.94148064 113.07432802 -37.22931543 109.1550205 -44.8125 105.3125 C-47.21542514 104.08047346 -49.61557099 102.8430773 -52.015625 101.60546875 C-52.6100087 101.29939697 -53.2043924 100.9933252 -53.81678772 100.67797852 C-80.97346586 86.68211197 -80.97346586 86.68211197 -89 79 C-90.16015625 77.89978516 -90.16015625 77.89978516 -91.34375 76.77734375 C-101.99823413 65.85649751 -106.32961118 53.85179993 -106.38500977 38.85229492 C-106.18560338 26.88036665 -101.99913221 17.80576739 -94 9 C-93.42765625 8.32453125 -92.8553125 7.6490625 -92.265625 6.953125 C-69.61639058 -18.01910783 -26.55101149 -18.16950299 0 0 Z " fill="#4385F5" transform="translate(113,173)"/>
</svg>
