<?xml version="1.0" standalone="no"?>
<!DOCTYPE svg PUBLIC "-//W3C//DTD SVG 20010904//EN"
 "http://www.w3.org/TR/2001/REC-SVG-20010904/DTD/svg10.dtd">
<svg version="1.0" xmlns="http://www.w3.org/2000/svg"
 width="364.000000pt" height="364.000000pt" viewBox="0 0 364.000000 364.000000"
 preserveAspectRatio="xMidYMid meet">

<g transform="translate(0.000000,364.000000) scale(0.100000,-0.100000)"
fill="#000000" stroke="none">
<path d="M1650 3629 c-568 -59 -1075 -373 -1372 -851 -201 -323 -302 -732
-269 -1090 43 -469 227 -860 552 -1173 155 -149 293 -245 484 -336 277 -132
618 -196 908 -170 309 28 579 116 825 269 116 72 192 132 301 237 325 313 509
704 552 1173 38 416 -103 889 -368 1235 -69 90 -216 239 -308 314 -361 291
-852 438 -1305 392z m483 -259 c312 -66 577 -210 802 -435 227 -227 367 -486
437 -808 19 -87 22 -133 22 -307 0 -174 -3 -220 -22 -307 -69 -321 -211 -582
-437 -808 -227 -227 -486 -367 -808 -437 -87 -19 -133 -22 -307 -22 -174 0
-220 3 -307 22 -322 70 -581 210 -808 437 -226 226 -368 487 -437 808 -19 87
-22 133 -22 307 0 174 3 220 22 307 70 322 210 581 437 808 212 212 451 348
736 419 154 38 225 45 419 41 127 -3 202 -10 273 -25z"/>
<path d="M1841 3133 c-49 -47 -900 -1313 -917 -1364 -23 -65 11 -137 77 -163
32 -13 85 -16 299 -16 l259 0 -5 -32 c-2 -18 -27 -246 -54 -507 -49 -462 -49
-476 -32 -510 26 -55 76 -84 135 -78 32 3 56 12 73 28 24 22 1006 1417 1032
1466 18 33 14 94 -8 130 -37 62 -45 63 -405 63 -253 0 -325 3 -325 13 0 6 23
210 51 452 49 416 51 442 36 477 -21 49 -68 78 -130 78 -42 0 -53 -5 -86 -37z"/>
</g>
</svg>
